<svg xmlns="http://www.w3.org/2000/svg" viewBox="0 0 400 200" fill="none">
  <defs>
    <linearGradient id="bg" x1="0" y1="0" x2="400" y2="200"><stop offset="0" stop-color="#ede9fe"/><stop offset="0.5" stop-color="#e0e7ff"/><stop offset="1" stop-color="#dbeafe"/></linearGradient>
  </defs>
  <rect width="400" height="200" rx="16" fill="url(#bg)"/>
  <!-- Speech bubbles (colorful, scattered) -->
  <rect x="40" y="30" width="90" height="36" rx="18" fill="#14b8a6" opacity="0.2" stroke="#14b8a6" stroke-width="1.5" stroke-opacity="0.4"/>
  <rect x="52" y="42" width="45" height="4" rx="2" fill="#14b8a6" opacity="0.4"/>
  <rect x="52" y="50" width="30" height="3" rx="1.5" fill="#14b8a6" opacity="0.25"/>
  <rect x="250" y="50" width="110" height="40" rx="20" fill="#f97316" opacity="0.15" stroke="#f97316" stroke-width="1.5" stroke-opacity="0.35"/>
  <rect x="266" y="64" width="55" height="4" rx="2" fill="#f97316" opacity="0.35"/>
  <rect x="266" y="72" width="38" height="3" rx="1.5" fill="#f97316" opacity="0.2"/>
  <rect x="120" y="110" width="100" height="36" rx="18" fill="#8b5cf6" opacity="0.15" stroke="#8b5cf6" stroke-width="1.5" stroke-opacity="0.3"/>
  <rect x="135" y="122" width="50" height="4" rx="2" fill="#8b5cf6" opacity="0.3"/>
  <rect x="135" y="130" width="35" height="3" rx="1.5" fill="#8b5cf6" opacity="0.2"/>
  <!-- Small bubble -->
  <rect x="300" y="120" width="60" height="28" rx="14" fill="#3b82f6" opacity="0.12" stroke="#3b82f6" stroke-width="1" stroke-opacity="0.25"/>
  <rect x="312" y="130" width="25" height="3" rx="1.5" fill="#3b82f6" opacity="0.25"/>
  <!-- Connection dots and lines -->
  <circle cx="130" cy="68" r="4" fill="#14b8a6" opacity="0.3"/>
  <circle cx="250" cy="90" r="3" fill="#f97316" opacity="0.3"/>
  <circle cx="220" cy="110" r="3" fill="#8b5cf6" opacity="0.3"/>
  <line x1="130" y1="68" x2="250" y2="70" stroke="#94a3b8" stroke-width="0.8" opacity="0.15" stroke-dasharray="4 4"/>
  <line x1="250" y1="90" x2="220" y2="110" stroke="#94a3b8" stroke-width="0.8" opacity="0.15" stroke-dasharray="4 4"/>
  <!-- Central microphone -->
  <circle cx="200" cy="100" r="28" fill="#ffffff" opacity="0.5"/>
  <circle cx="200" cy="100" r="20" fill="#ffffff" opacity="0.7"/>
  <rect x="194" y="86" width="12" height="20" rx="6" fill="#6366f1" opacity="0.6"/>
  <path d="M190 100 Q190 112 200 112 Q210 112 210 100" stroke="#6366f1" stroke-width="2" fill="none" opacity="0.4"/>
  <line x1="200" y1="112" x2="200" y2="118" stroke="#6366f1" stroke-width="2" opacity="0.4"/>
  <line x1="194" y1="118" x2="206" y2="118" stroke="#6366f1" stroke-width="2" opacity="0.4"/>
  <!-- Sparkle accents -->
  <circle cx="60" cy="160" r="3" fill="#fbbf24" opacity="0.4"/>
  <circle cx="340" cy="35" r="3" fill="#fbbf24" opacity="0.4"/>
  <circle cx="170" cy="25" r="2" fill="#f43f5e" opacity="0.3"/>
  <circle cx="350" cy="165" r="2" fill="#10b981" opacity="0.3"/>
</svg>
