<svg xmlns="http://www.w3.org/2000/svg" viewBox="0 0 400 200" fill="none">
  <defs>
    <linearGradient id="sky" x1="0" y1="0" x2="0" y2="1"><stop offset="0" stop-color="#bfdbfe"/><stop offset="1" stop-color="#dbeafe"/></linearGradient>
  </defs>
  <rect width="400" height="200" rx="16" fill="url(#sky)"/>
  <!-- Floor -->
  <rect x="0" y="145" width="400" height="55" rx="0" fill="#e2e8f0"/>
  <rect x="0" y="143" width="400" height="4" rx="2" fill="#cbd5e1"/>
  <!-- Lockers (colorful) -->
  <rect x="15" y="30" width="28" height="115" rx="4" fill="#3b82f6" opacity="0.7"/>
  <rect x="48" y="30" width="28" height="115" rx="4" fill="#f43f5e" opacity="0.6"/>
  <rect x="81" y="30" width="28" height="115" rx="4" fill="#8b5cf6" opacity="0.6"/>
  <rect x="295" y="30" width="28" height="115" rx="4" fill="#f97316" opacity="0.6"/>
  <rect x="328" y="30" width="28" height="115" rx="4" fill="#10b981" opacity="0.7"/>
  <rect x="361" y="30" width="28" height="115" rx="4" fill="#06b6d4" opacity="0.6"/>
  <!-- Locker handles -->
  <circle cx="29" cy="90" r="2" fill="#ffffff" opacity="0.6"/>
  <circle cx="62" cy="90" r="2" fill="#ffffff" opacity="0.5"/>
  <circle cx="95" cy="90" r="2" fill="#ffffff" opacity="0.5"/>
  <!-- Person 1 (left, teal shirt) -->
  <circle cx="160" cy="80" r="16" fill="#fde68a"/>
  <rect x="148" y="98" width="24" height="48" rx="6" fill="#14b8a6"/>
  <rect x="142" y="100" width="10" height="28" rx="5" fill="#14b8a6"/>
  <rect x="168" y="100" width="10" height="28" rx="5" fill="#14b8a6"/>
  <circle cx="155" cy="78" r="2" fill="#1c1917"/>
  <circle cx="165" cy="78" r="2" fill="#1c1917"/>
  <path d="M157 85 Q160 88 163 85" stroke="#1c1917" stroke-width="1.5" fill="none"/>
  <!-- Person 2 (right, orange shirt) -->
  <circle cx="240" cy="80" r="16" fill="#fde68a"/>
  <rect x="228" y="98" width="24" height="48" rx="6" fill="#f97316"/>
  <rect x="222" y="100" width="10" height="28" rx="5" fill="#f97316"/>
  <rect x="248" y="100" width="10" height="28" rx="5" fill="#f97316"/>
  <circle cx="235" cy="78" r="2" fill="#1c1917"/>
  <circle cx="245" cy="78" r="2" fill="#1c1917"/>
  <path d="M237 85 Q240 88 243 85" stroke="#1c1917" stroke-width="1.5" fill="none"/>
  <!-- Wave hand -->
  <circle cx="178" cy="105" r="5" fill="#fde68a"/>
  <!-- Speech bubble -->
  <rect x="170" y="48" width="60" height="24" rx="12" fill="#ffffff" opacity="0.9" stroke="#e2e8f0" stroke-width="1"/>
  <rect x="180" y="56" width="30" height="3" rx="1.5" fill="#64748b" opacity="0.5"/>
  <rect x="180" y="62" width="20" height="3" rx="1.5" fill="#64748b" opacity="0.35"/>
  <!-- Friendly sparkles -->
  <circle cx="200" cy="35" r="3" fill="#fbbf24" opacity="0.5"/>
  <circle cx="188" cy="42" r="2" fill="#fbbf24" opacity="0.4"/>
  <circle cx="215" cy="40" r="2" fill="#fbbf24" opacity="0.3"/>
</svg>
