<svg xmlns="http://www.w3.org/2000/svg" viewBox="0 0 1600 900" fill="none">
  <defs>
    <linearGradient id="bg" x1="200" y1="70" x2="1400" y2="840" gradientUnits="userSpaceOnUse">
      <stop offset="0" stop-color="#120F28"/>
      <stop offset="0.5" stop-color="#2C1F52"/>
      <stop offset="1" stop-color="#4D3C7A"/>
    </linearGradient>
    <linearGradient id="left" x1="0" y1="0" x2="1" y2="1">
      <stop offset="0" stop-color="#FF7A59"/>
      <stop offset="1" stop-color="#FFB14A"/>
    </linearGradient>
    <linearGradient id="right" x1="0" y1="0" x2="1" y2="1">
      <stop offset="0" stop-color="#52D6C5"/>
      <stop offset="1" stop-color="#24A6D7"/>
    </linearGradient>
  </defs>
  <rect width="1600" height="900" fill="url(#bg)"/>
  <rect x="240" y="170" width="1120" height="560" rx="42" fill="#FFFFFF" fill-opacity=".06" stroke="#FFFFFF" stroke-opacity=".12"/>
  <g transform="translate(370 230)">
    <path d="M380 120h460" stroke="#DDE7F5" stroke-width="14" stroke-linecap="round" opacity=".75"/>
    <path d="M410 94 380 120l30 26" stroke="#DDE7F5" stroke-width="14" stroke-linecap="round" stroke-linejoin="round" opacity=".75"/>
    <path d="M810 94 840 120l-30 26" stroke="#DDE7F5" stroke-width="14" stroke-linecap="round" stroke-linejoin="round" opacity=".75"/>
    <rect x="0" y="44" width="340" height="360" rx="34" fill="url(#left)"/>
    <rect x="930" y="44" width="340" height="360" rx="34" fill="url(#right)"/>
    <rect x="422" y="34" width="376" height="388" rx="42" fill="#F7FBFF"/>
    <path d="M492 112h236M492 158h160M492 204h204" stroke="#8A95A8" stroke-width="14" stroke-linecap="round"/>
    <path d="M504 286h114v60H504z" fill="#FF7A59"/>
    <path d="M622 286h114v60H622z" fill="#24A6D7"/>
    <path d="M516 346h220" stroke="#2C1F52" stroke-width="12" stroke-linecap="round" opacity=".65"/>
    <path d="M86 128h168M86 178h220M86 228h136" stroke="#FFF" stroke-width="16" stroke-linecap="round" stroke-opacity=".85"/>
    <path d="M1004 128h168M1004 178h220M1004 228h136" stroke="#FFF" stroke-width="16" stroke-linecap="round" stroke-opacity=".85"/>
  </g>
</svg>
