<svg xmlns="http://www.w3.org/2000/svg" viewBox="0 0 1600 900" fill="none">
  <defs>
    <linearGradient id="bg" x1="170" y1="80" x2="1430" y2="820" gradientUnits="userSpaceOnUse">
      <stop offset="0" stop-color="#110F27"/>
      <stop offset="0.5" stop-color="#2B2051"/>
      <stop offset="1" stop-color="#5A356D"/>
    </linearGradient>
    <linearGradient id="clock" x1="0" y1="0" x2="1" y2="1">
      <stop offset="0" stop-color="#F5F8FF"/>
      <stop offset="1" stop-color="#DDE7F5"/>
    </linearGradient>
  </defs>
  <rect width="1600" height="900" fill="url(#bg)"/>
  <circle cx="1280" cy="170" r="130" fill="#FF7A59" fill-opacity=".12"/>
  <rect x="260" y="180" width="1080" height="540" rx="44" fill="#FFFFFF" fill-opacity=".06" stroke="#FFFFFF" stroke-opacity=".12"/>
  <g transform="translate(360 240)">
    <rect x="0" y="40" width="340" height="320" rx="36" fill="#F5F8FF"/>
    <rect x="52" y="0" width="236" height="84" rx="22" fill="#FF7A59"/>
    <path d="M88 216l56-64 52 38 96-114" stroke="#24A6D7" stroke-width="18" stroke-linecap="round" stroke-linejoin="round"/>
    <circle cx="88" cy="216" r="18" fill="#24A6D7"/>
    <circle cx="144" cy="152" r="18" fill="#24A6D7"/>
    <circle cx="196" cy="190" r="18" fill="#24A6D7"/>
    <circle cx="292" cy="76" r="18" fill="#24A6D7"/>
    <g transform="translate(476 42)">
      <circle cx="150" cy="148" r="124" fill="url(#clock)"/>
      <circle cx="150" cy="148" r="124" stroke="#FFCF5A" stroke-width="16"/>
      <path d="M150 84v72l56 34" stroke="#2B2051" stroke-width="16" stroke-linecap="round" stroke-linejoin="round"/>
      <path d="M150 24v32M150 240v32M26 148h32M242 148h32" stroke="#FFCF5A" stroke-width="12" stroke-linecap="round"/>
    </g>
  </g>
</svg>
