<svg xmlns="http://www.w3.org/2000/svg" viewBox="0 0 1600 900" fill="none">
  <defs>
    <linearGradient id="bg" x1="180" y1="80" x2="1420" y2="820" gradientUnits="userSpaceOnUse">
      <stop offset="0" stop-color="#081B33"/>
      <stop offset="0.5" stop-color="#123A5A"/>
      <stop offset="1" stop-color="#0D6274"/>
    </linearGradient>
    <linearGradient id="card" x1="520" y1="220" x2="1120" y2="680" gradientUnits="userSpaceOnUse">
      <stop offset="0" stop-color="#F8FAFF"/>
      <stop offset="1" stop-color="#DCE7F5"/>
    </linearGradient>
    <linearGradient id="tagA" x1="0" y1="0" x2="1" y2="1">
      <stop offset="0" stop-color="#FFB14A"/>
      <stop offset="1" stop-color="#FF6A5C"/>
    </linearGradient>
    <linearGradient id="tagB" x1="0" y1="0" x2="1" y2="1">
      <stop offset="0" stop-color="#52D6C5"/>
      <stop offset="1" stop-color="#1C97D3"/>
    </linearGradient>
    <linearGradient id="tagC" x1="0" y1="0" x2="1" y2="1">
      <stop offset="0" stop-color="#E7A9FF"/>
      <stop offset="1" stop-color="#8F6BFF"/>
    </linearGradient>
  </defs>
  <rect width="1600" height="900" fill="url(#bg)"/>
  <circle cx="260" cy="150" r="90" fill="#2DE2C5" fill-opacity=".18"/>
  <circle cx="1320" cy="180" r="120" fill="#8F6BFF" fill-opacity=".16"/>
  <circle cx="1270" cy="690" r="220" fill="#FFB14A" fill-opacity=".08"/>
  <rect x="320" y="170" width="960" height="560" rx="38" fill="url(#card)" fill-opacity=".07" stroke="#FFFFFF" stroke-opacity=".16"/>
  <g transform="translate(400 230)">
    <rect x="42" y="64" width="480" height="120" rx="28" fill="url(#tagA)" transform="rotate(-12 282 124)"/>
    <rect x="132" y="92" width="520" height="128" rx="30" fill="url(#tagB)" transform="rotate(6 392 156)"/>
    <rect x="98" y="214" width="540" height="130" rx="30" fill="url(#tagC)" transform="rotate(-4 368 279)"/>
    <rect x="176" y="334" width="438" height="112" rx="26" fill="#F8FAFF" fill-opacity=".95" stroke="#D6E5F5"/>
    <path d="M130 105h110" stroke="#FFF" stroke-width="18" stroke-linecap="round" stroke-opacity=".55"/>
    <path d="M228 132h220" stroke="#FFF" stroke-width="14" stroke-linecap="round" stroke-opacity=".45"/>
    <path d="M180 250h128" stroke="#FFF" stroke-width="16" stroke-linecap="round" stroke-opacity=".52"/>
    <path d="M297 275h206" stroke="#FFF" stroke-width="12" stroke-linecap="round" stroke-opacity=".46"/>
    <path d="M242 383h164" stroke="#8C9DB8" stroke-width="12" stroke-linecap="round"/>
    <circle cx="568" cy="152" r="14" fill="#FFF" fill-opacity=".7"/>
    <circle cx="548" cy="278" r="14" fill="#FFF" fill-opacity=".7"/>
    <circle cx="516" cy="388" r="14" fill="#1C97D3"/>
  </g>
  <g opacity=".55">
    <path d="M214 602h184" stroke="#BCEDE8" stroke-width="10" stroke-linecap="round"/>
    <path d="M214 634h112" stroke="#BCEDE8" stroke-width="10" stroke-linecap="round"/>
    <path d="M1218 616h168" stroke="#FFD8A4" stroke-width="10" stroke-linecap="round"/>
    <path d="M1228 650h102" stroke="#FFD8A4" stroke-width="10" stroke-linecap="round"/>
  </g>
</svg>
