<svg xmlns="http://www.w3.org/2000/svg" viewBox="0 0 1600 900" fill="none">
  <defs>
    <linearGradient id="bg" x1="160" y1="60" x2="1440" y2="840" gradientUnits="userSpaceOnUse">
      <stop offset="0" stop-color="#101B2C"/>
      <stop offset="0.5" stop-color="#183B59"/>
      <stop offset="1" stop-color="#42607C"/>
    </linearGradient>
    <linearGradient id="tile1" x1="0" y1="0" x2="1" y2="1">
      <stop offset="0" stop-color="#FF7A59"/>
      <stop offset="1" stop-color="#FFB14A"/>
    </linearGradient>
    <linearGradient id="tile2" x1="0" y1="0" x2="1" y2="1">
      <stop offset="0" stop-color="#52D6C5"/>
      <stop offset="1" stop-color="#24A6D7"/>
    </linearGradient>
    <linearGradient id="tile3" x1="0" y1="0" x2="1" y2="1">
      <stop offset="0" stop-color="#8F6BFF"/>
      <stop offset="1" stop-color="#E7A9FF"/>
    </linearGradient>
  </defs>
  <rect width="1600" height="900" fill="url(#bg)"/>
  <rect x="250" y="170" width="1100" height="560" rx="42" fill="#FFFFFF" fill-opacity=".06" stroke="#FFFFFF" stroke-opacity=".12"/>
  <g transform="translate(380 220)">
    <rect x="0" y="0" width="280" height="120" rx="28" fill="url(#tile1)"/>
    <rect x="320" y="0" width="280" height="120" rx="28" fill="url(#tile2)"/>
    <rect x="640" y="0" width="280" height="120" rx="28" fill="url(#tile3)"/>
    <rect x="160" y="150" width="280" height="120" rx="28" fill="url(#tile2)"/>
    <rect x="480" y="150" width="280" height="120" rx="28" fill="url(#tile3)"/>
    <rect x="320" y="300" width="280" height="120" rx="28" fill="url(#tile1)"/>
    <path d="M280 60h40M600 60h40M440 210h40M760 210h40M600 360h40" stroke="#DDE7F5" stroke-width="10" stroke-linecap="round"/>
    <circle cx="76" cy="60" r="24" fill="#FFF" fill-opacity=".85"/>
    <circle cx="396" cy="60" r="24" fill="#FFF" fill-opacity=".85"/>
    <circle cx="716" cy="60" r="24" fill="#FFF" fill-opacity=".85"/>
    <circle cx="236" cy="210" r="24" fill="#FFF" fill-opacity=".85"/>
    <circle cx="556" cy="210" r="24" fill="#FFF" fill-opacity=".85"/>
    <circle cx="396" cy="360" r="24" fill="#FFF" fill-opacity=".85"/>
    <path d="M92 72h92M412 72h92M732 72h92M252 222h92M572 222h92M412 372h92" stroke="#FFF" stroke-opacity=".62" stroke-width="14" stroke-linecap="round"/>
  </g>
</svg>
