<svg xmlns="http://www.w3.org/2000/svg" viewBox="0 0 1600 900" fill="none">
  <defs>
    <linearGradient id="bg" x1="200" y1="80" x2="1400" y2="820" gradientUnits="userSpaceOnUse">
      <stop offset="0" stop-color="#091A2B"/>
      <stop offset="0.55" stop-color="#163A56"/>
      <stop offset="1" stop-color="#325D72"/>
    </linearGradient>
    <linearGradient id="glass" x1="0" y1="0" x2="1" y2="1">
      <stop offset="0" stop-color="#F7FBFF"/>
      <stop offset="1" stop-color="#D8E5F6"/>
    </linearGradient>
  </defs>
  <rect width="1600" height="900" fill="url(#bg)"/>
  <rect x="240" y="170" width="1120" height="560" rx="40" fill="#FFFFFF" fill-opacity=".06" stroke="#FFFFFF" stroke-opacity=".12"/>
  <g transform="translate(330 250)">
    <rect x="0" y="0" width="340" height="260" rx="28" fill="#F7FBFF" fill-opacity=".92"/>
    <path d="M36 60h268M36 130h268M36 200h268" stroke="#9AA6B8" stroke-width="10" stroke-linecap="round"/>
    <path d="M90 36v188M170 36v188M250 36v188" stroke="#C3CEDD" stroke-width="8" stroke-linecap="round"/>
    <rect x="392" y="20" width="450" height="310" rx="36" fill="#122947"/>
    <circle cx="554" cy="170" r="96" fill="url(#glass)"/>
    <circle cx="554" cy="170" r="120" stroke="#52D6C5" stroke-width="10" stroke-opacity=".8"/>
    <path d="M626 242l74 74" stroke="#FFB14A" stroke-width="18" stroke-linecap="round"/>
    <circle cx="626" cy="242" r="26" fill="#FFB14A"/>
    <path d="M554 118v104M502 170h104" stroke="#163A56" stroke-width="18" stroke-linecap="round"/>
    <path d="M420 352h252" stroke="#D8E5F6" stroke-width="12" stroke-linecap="round" opacity=".8"/>
    <path d="M420 398h176" stroke="#D8E5F6" stroke-width="12" stroke-linecap="round" opacity=".8"/>
  </g>
</svg>
