<svg xmlns="http://www.w3.org/2000/svg" viewBox="0 0 1600 900" fill="none">
  <defs>
    <linearGradient id="bg" x1="170" y1="70" x2="1430" y2="840" gradientUnits="userSpaceOnUse">
      <stop offset="0" stop-color="#081A2E"/>
      <stop offset="0.5" stop-color="#1B4A69"/>
      <stop offset="1" stop-color="#2D7A87"/>
    </linearGradient>
    <linearGradient id="panel" x1="0" y1="0" x2="1" y2="1">
      <stop offset="0" stop-color="#F7FBFF"/>
      <stop offset="1" stop-color="#D9E4F1"/>
    </linearGradient>
  </defs>
  <rect width="1600" height="900" fill="url(#bg)"/>
  <rect x="230" y="170" width="1140" height="560" rx="44" fill="#FFFFFF" fill-opacity=".06" stroke="#FFFFFF" stroke-opacity=".12"/>
  <g transform="translate(360 220)">
    <rect x="0" y="0" width="300" height="360" rx="34" fill="#123B57"/>
    <rect x="32" y="36" width="236" height="86" rx="20" fill="#FFCF5A"/>
    <path d="M64 80h172" stroke="#123B57" stroke-width="16" stroke-linecap="round"/>
    <path d="M150 122v204" stroke="#FFCF5A" stroke-width="14" stroke-linecap="round"/>
    <rect x="390" y="56" width="520" height="248" rx="34" fill="url(#panel)"/>
    <path d="M436 110h212M436 154h318M436 198h244" stroke="#798BA3" stroke-width="14" stroke-linecap="round"/>
    <circle cx="820" cy="178" r="58" fill="#24A6D7"/>
    <path d="M804 178h32M820 162v32" stroke="#FFF" stroke-width="12" stroke-linecap="round"/>
    <path d="M450 278h248" stroke="#24A6D7" stroke-width="12" stroke-linecap="round" opacity=".85"/>
    <path d="M450 322h172" stroke="#24A6D7" stroke-width="12" stroke-linecap="round" opacity=".85"/>
    <path d="M972 120h120" stroke="#FF7A59" stroke-width="14" stroke-linecap="round"/>
    <path d="M1024 86v68" stroke="#FF7A59" stroke-width="14" stroke-linecap="round"/>
  </g>
</svg>
