<svg xmlns="http://www.w3.org/2000/svg" viewBox="0 0 1600 900" fill="none">
  <defs>
    <linearGradient id="bg" x1="210" y1="70" x2="1390" y2="840" gradientUnits="userSpaceOnUse">
      <stop offset="0" stop-color="#17102D"/>
      <stop offset="0.55" stop-color="#39245B"/>
      <stop offset="1" stop-color="#5E4C8A"/>
    </linearGradient>
    <linearGradient id="linkA" x1="0" y1="0" x2="1" y2="1">
      <stop offset="0" stop-color="#FFB14A"/>
      <stop offset="1" stop-color="#FF7A59"/>
    </linearGradient>
    <linearGradient id="linkB" x1="0" y1="0" x2="1" y2="1">
      <stop offset="0" stop-color="#52D6C5"/>
      <stop offset="1" stop-color="#24A6D7"/>
    </linearGradient>
    <linearGradient id="linkC" x1="0" y1="0" x2="1" y2="1">
      <stop offset="0" stop-color="#E7A9FF"/>
      <stop offset="1" stop-color="#8F6BFF"/>
    </linearGradient>
  </defs>
  <rect width="1600" height="900" fill="url(#bg)"/>
  <rect x="240" y="180" width="1120" height="540" rx="44" fill="#FFFFFF" fill-opacity=".06" stroke="#FFFFFF" stroke-opacity=".12"/>
  <g transform="translate(430 255)">
    <rect x="36" y="72" width="240" height="112" rx="56" stroke="url(#linkA)" stroke-width="26"/>
    <rect x="238" y="172" width="240" height="112" rx="56" stroke="url(#linkB)" stroke-width="26"/>
    <rect x="440" y="72" width="240" height="112" rx="56" stroke="url(#linkC)" stroke-width="26"/>
    <rect x="642" y="172" width="240" height="112" rx="56" stroke="url(#linkA)" stroke-width="26"/>
    <path d="M156 128h100M358 228h100M560 128h100M762 228h100" stroke="#FFF" stroke-opacity=".75" stroke-width="12" stroke-linecap="round"/>
    <circle cx="156" cy="128" r="16" fill="#FFF"/>
    <circle cx="358" cy="228" r="16" fill="#FFF"/>
    <circle cx="560" cy="128" r="16" fill="#FFF"/>
    <circle cx="762" cy="228" r="16" fill="#FFF"/>
    <path d="M50 346h292" stroke="#DCE8F7" stroke-width="12" stroke-linecap="round"/>
    <path d="M50 390h418" stroke="#DCE8F7" stroke-width="12" stroke-linecap="round"/>
  </g>
</svg>
